# xmcd
#
# Track frame offsets: 
#        150
#        19062
#        36810
#        60143
#        77883
#        106005
#        131770
#        157437
#        187930
#        209517
#
# Disc length: 3045 seconds
#
# Revision: 3
# Processed by: cddbd v1.5.2PL0 Copyright (c) Steve Scherf et al.
# Submitted via: ExactAudioCopy v0.99pb4
#
DISCID=800be30a
DTITLE=Danny Bryant's RedEyeBand - Covering Their Tracks
DYEAR=2004
DGENRE=Blues
TTITLE0=This Is The Blues
TTITLE1=Hendrix Jam
TTITLE2=Old Love
TTITLE3=Blues Before Sunrise
TTITLE4=Lean On Me
TTITLE5=Five Long Years
TTITLE6=Nobody Loves Me Like I Love Myself
TTITLE7=Girl From The North Country
TTITLE8=Time (To Say Goodbye)
TTITLE9=Memories
EXTD=YEAR: 2004
EXTT0=
EXTT1=
EXTT2=
EXTT3=
EXTT4=
EXTT5=
EXTT6=
EXTT7=
EXTT8=
EXTT9=
PLAYORDER=
